<?xml version="1.0" encoding="UTF-8" standalone="no"?>
<!DOCTYPE svg PUBLIC "-//W3C//DTD SVG 1.1//EN"
 "http://www.w3.org/Graphics/SVG/1.1/DTD/svg11.dtd">
<!-- Generated by graphviz version 2.43.0 (0)
 -->
<!-- Title: AssetConstructionFlow Pages: 1 -->
<svg width="676pt" height="2355pt"
 viewBox="0.00 0.00 675.50 2354.58" xmlns="http://www.w3.org/2000/svg" xmlns:xlink="http://www.w3.org/1999/xlink">
<g id="graph0" class="graph" transform="scale(1 1) rotate(0) translate(4 2350.58)">
<title>AssetConstructionFlow</title>
<polygon fill="white" stroke="transparent" points="-4,4 -4,-2350.58 671.5,-2350.58 671.5,4 -4,4"/>
<text text-anchor="middle" x="333.75" y="-2310.78" font-family="Arial Bold" font-size="16.00">Charms Asset Construction Flow</text>
<text text-anchor="middle" x="333.75" y="-2292.78" font-family="Arial Bold" font-size="16.00">From Development to On&#45;Chain Deployment</text>
<g id="clust1" class="cluster">
<title>cluster_development</title>
<path fill="#f0fff0" stroke="#2e8b57" d="M54,-1875.58C54,-1875.58 194,-1875.58 194,-1875.58 200,-1875.58 206,-1881.58 206,-1887.58 206,-1887.58 206,-2263.58 206,-2263.58 206,-2269.58 200,-2275.58 194,-2275.58 194,-2275.58 54,-2275.58 54,-2275.58 48,-2275.58 42,-2269.58 42,-2263.58 42,-2263.58 42,-1887.58 42,-1887.58 42,-1881.58 48,-1875.58 54,-1875.58"/>
<text text-anchor="middle" x="124" y="-2260.38" font-family="Times,serif" font-size="14.00">Development Phase</text>
</g>
<g id="clust2" class="cluster">
<title>cluster_registration</title>
<path fill="#f0f8ff" stroke="#4169e1" d="M35,-1419.11C35,-1419.11 211,-1419.11 211,-1419.11 217,-1419.11 223,-1425.11 223,-1431.11 223,-1431.11 223,-1815.58 223,-1815.58 223,-1821.58 217,-1827.58 211,-1827.58 211,-1827.58 35,-1827.58 35,-1827.58 29,-1827.58 23,-1821.58 23,-1815.58 23,-1815.58 23,-1431.11 23,-1431.11 23,-1425.11 29,-1419.11 35,-1419.11"/>
<text text-anchor="middle" x="123" y="-1812.38" font-family="Times,serif" font-size="14.00">App Registration Phase</text>
</g>
<g id="clust3" class="cluster">
<title>cluster_creation</title>
<path fill="#fff8dc" stroke="#ff6347" d="M44,-929.29C44,-929.29 202,-929.29 202,-929.29 208,-929.29 214,-935.29 214,-941.29 214,-941.29 214,-1319.65 214,-1319.65 214,-1325.65 208,-1331.65 202,-1331.65 202,-1331.65 44,-1331.65 44,-1331.65 38,-1331.65 32,-1325.65 32,-1319.65 32,-1319.65 32,-941.29 32,-941.29 32,-935.29 38,-929.29 44,-929.29"/>
<text text-anchor="middle" x="123" y="-1316.45" font-family="Times,serif" font-size="14.00">Asset Creation Phase</text>
</g>
<g id="clust4" class="cluster">
<title>cluster_spell</title>
<path fill="#f8f8ff" stroke="#8b008b" d="M20,-425C20,-425 222,-425 222,-425 228,-425 234,-431 234,-437 234,-437 234,-860.94 234,-860.94 234,-866.94 228,-872.94 222,-872.94 222,-872.94 20,-872.94 20,-872.94 14,-872.94 8,-866.94 8,-860.94 8,-860.94 8,-437 8,-437 8,-431 14,-425 20,-425"/>
<text text-anchor="middle" x="121" y="-857.74" font-family="Times,serif" font-size="14.00">Spell Creation &amp; Proof Phase</text>
</g>
<g id="clust5" class="cluster">
<title>cluster_bitcoin</title>
<path fill="#fffaf0" stroke="#ff8c00" d="M28,-8C28,-8 203,-8 203,-8 209,-8 215,-14 215,-20 215,-20 215,-365 215,-365 215,-371 209,-377 203,-377 203,-377 28,-377 28,-377 22,-377 16,-371 16,-365 16,-365 16,-20 16,-20 16,-14 22,-8 28,-8"/>
<text text-anchor="middle" x="115.5" y="-361.8" font-family="Times,serif" font-size="14.00">Bitcoin Integration Phase</text>
</g>
<!-- DevCode -->
<g id="node1" class="node">
<title>DevCode</title>
<polygon fill="#98fb98" stroke="black" points="198,-2244.58 50,-2244.58 50,-2177.58 198,-2177.58 198,-2244.58"/>
<text text-anchor="middle" x="124" y="-2220.98" font-family="Arial" font-size="12.00">Write App Contract</text>
<text text-anchor="middle" x="124" y="-2207.98" font-family="Arial" font-size="12.00">(Rust code with</text>
<text text-anchor="middle" x="124" y="-2194.98" font-family="Arial" font-size="12.00">charms_sdk::main!)</text>
</g>
<!-- Compile -->
<g id="node2" class="node">
<title>Compile</title>
<polygon fill="#90ee90" stroke="black" points="197.5,-2084.58 50.5,-2084.58 50.5,-2030.58 197.5,-2030.58 197.5,-2084.58"/>
<text text-anchor="middle" x="124" y="-2060.98" font-family="Arial" font-size="12.00">Compile to RISC&#45;V</text>
<text text-anchor="middle" x="124" y="-2047.98" font-family="Arial" font-size="12.00">(charms app build)</text>
</g>
<!-- DevCode&#45;&gt;Compile -->
<g id="edge1" class="edge">
<title>DevCode&#45;&gt;Compile</title>
<path fill="none" stroke="black" stroke-width="1.5" d="M124,-2177.58C124,-2153.39 124,-2120.35 124,-2095.22"/>
<polygon fill="black" stroke="black" stroke-width="1.5" points="127.5,-2094.98 124,-2084.98 120.5,-2094.98 127.5,-2094.98"/>
<text text-anchor="middle" x="150.5" y="-2132.78" font-family="Arial" font-size="11.00">cargo build</text>
</g>
<!-- TokenApp -->
<g id="node16" class="node">
<title>TokenApp</title>
<polygon fill="#ffffe0" stroke="black" points="434,-2093.58 256,-2093.58 256,-2021.58 440,-2021.58 440,-2087.58 434,-2093.58"/>
<polyline fill="none" stroke="black" points="434,-2093.58 434,-2087.58 "/>
<polyline fill="none" stroke="black" points="440,-2087.58 434,-2087.58 "/>
<text text-anchor="middle" x="348" y="-2071.58" font-family="Arial" font-size="10.00">Example: Token App</text>
<text text-anchor="middle" x="348" y="-2060.58" font-family="Arial" font-size="10.00">• tag: &#39;t&#39;</text>
<text text-anchor="middle" x="348" y="-2049.58" font-family="Arial" font-size="10.00">• validates amount conservation</text>
<text text-anchor="middle" x="348" y="-2038.58" font-family="Arial" font-size="10.00">• allows minting/burning</text>
</g>
<!-- DevCode&#45;&gt;TokenApp -->
<g id="edge15" class="edge">
<title>DevCode&#45;&gt;TokenApp</title>
<path fill="none" stroke="#666666" stroke-width="1.5" stroke-dasharray="5,2" d="M172.05,-2177.58C205.85,-2154.72 251.34,-2123.96 287.59,-2099.44"/>
<polygon fill="#666666" stroke="#666666" stroke-width="1.5" points="289.8,-2102.17 296.12,-2093.67 285.88,-2096.37 289.8,-2102.17"/>
</g>
<!-- NFTApp -->
<g id="node17" class="node">
<title>NFTApp</title>
<polygon fill="#ffffe0" stroke="black" points="661.5,-2093.58 498.5,-2093.58 498.5,-2021.58 667.5,-2021.58 667.5,-2087.58 661.5,-2093.58"/>
<polyline fill="none" stroke="black" points="661.5,-2093.58 661.5,-2087.58 "/>
<polyline fill="none" stroke="black" points="667.5,-2087.58 661.5,-2087.58 "/>
<text text-anchor="middle" x="583" y="-2071.58" font-family="Arial" font-size="10.00">Example: NFT App</text>
<text text-anchor="middle" x="583" y="-2060.58" font-family="Arial" font-size="10.00">• tag: &#39;n&#39;</text>
<text text-anchor="middle" x="583" y="-2049.58" font-family="Arial" font-size="10.00">• validates unique ownership</text>
<text text-anchor="middle" x="583" y="-2038.58" font-family="Arial" font-size="10.00">• allows state updates</text>
</g>
<!-- DevCode&#45;&gt;NFTApp -->
<g id="edge16" class="edge">
<title>DevCode&#45;&gt;NFTApp</title>
<path fill="none" stroke="#666666" stroke-width="1.5" stroke-dasharray="5,2" d="M198,-2185.66C277.07,-2159.56 402.62,-2118.12 488.72,-2089.7"/>
<polygon fill="#666666" stroke="#666666" stroke-width="1.5" points="489.83,-2093.02 498.23,-2086.56 487.63,-2086.37 489.83,-2093.02"/>
</g>
<!-- Test -->
<g id="node3" class="node">
<title>Test</title>
<polygon fill="#90ee90" stroke="black" points="191.5,-1937.58 56.5,-1937.58 56.5,-1883.58 191.5,-1883.58 191.5,-1937.58"/>
<text text-anchor="middle" x="124" y="-1913.98" font-family="Arial" font-size="12.00">Test App Logic</text>
<text text-anchor="middle" x="124" y="-1900.98" font-family="Arial" font-size="12.00">(charms app run)</text>
</g>
<!-- Compile&#45;&gt;Test -->
<g id="edge2" class="edge">
<title>Compile&#45;&gt;Test</title>
<path fill="none" stroke="black" stroke-width="1.5" d="M124,-2030.32C124,-2007.23 124,-1973.39 124,-1947.73"/>
<polygon fill="black" stroke="black" stroke-width="1.5" points="127.5,-1947.65 124,-1937.65 120.5,-1947.65 127.5,-1947.65"/>
<text text-anchor="middle" x="155" y="-1976.78" font-family="Arial" font-size="11.00">validate logic</text>
</g>
<!-- GenerateVK -->
<g id="node4" class="node">
<title>GenerateVK</title>
<polygon fill="#87ceeb" stroke="black" points="214,-1796.58 34,-1796.58 34,-1742.58 214,-1742.58 214,-1796.58"/>
<text text-anchor="middle" x="124" y="-1772.98" font-family="Arial" font-size="12.00">Generate Verification Key</text>
<text text-anchor="middle" x="124" y="-1759.98" font-family="Arial" font-size="12.00">(from RISC&#45;V binary)</text>
</g>
<!-- Test&#45;&gt;GenerateVK -->
<g id="edge3" class="edge">
<title>Test&#45;&gt;GenerateVK</title>
<path fill="none" stroke="black" stroke-width="1.5" d="M124,-1883.44C124,-1861.79 124,-1830.8 124,-1806.77"/>
<polygon fill="black" stroke="black" stroke-width="1.5" points="127.5,-1806.61 124,-1796.61 120.5,-1806.61 127.5,-1806.61"/>
<text text-anchor="middle" x="152.5" y="-1838.78" font-family="Arial" font-size="11.00">if tests pass</text>
</g>
<!-- CreateApp -->
<g id="node5" class="node">
<title>CreateApp</title>
<polygon fill="#87cefa" stroke="black" points="202,-1658.58 46,-1658.58 46,-1604.58 202,-1604.58 202,-1658.58"/>
<text text-anchor="middle" x="124" y="-1634.98" font-family="Arial" font-size="12.00">Create App Structure</text>
<text text-anchor="middle" x="124" y="-1621.98" font-family="Arial" font-size="12.00">(tag, identity, vk)</text>
</g>
<!-- GenerateVK&#45;&gt;CreateApp -->
<g id="edge4" class="edge">
<title>GenerateVK&#45;&gt;CreateApp</title>
<path fill="none" stroke="black" stroke-width="1.5" d="M124,-1742.36C124,-1721.48 124,-1692.01 124,-1668.86"/>
<polygon fill="black" stroke="black" stroke-width="1.5" points="127.5,-1668.72 124,-1658.72 120.5,-1668.72 127.5,-1668.72"/>
<text text-anchor="middle" x="168.5" y="-1697.78" font-family="Arial" font-size="11.00">compute app hash</text>
</g>
<!-- RegisterApp -->
<g id="node6" class="node">
<title>RegisterApp</title>
<polygon fill="#6495ed" stroke="black" points="214.5,-1481.11 31.5,-1481.11 31.5,-1427.11 214.5,-1427.11 214.5,-1481.11"/>
<text text-anchor="middle" x="123" y="-1457.51" font-family="Arial" font-size="12.00">Register App</text>
<text text-anchor="middle" x="123" y="-1444.51" font-family="Arial" font-size="12.00">(make VK publicly known)</text>
</g>
<!-- CreateApp&#45;&gt;RegisterApp -->
<g id="edge5" class="edge">
<title>CreateApp&#45;&gt;RegisterApp</title>
<path fill="none" stroke="black" stroke-width="1.5" d="M123.85,-1604.31C123.68,-1574.38 123.4,-1525.26 123.21,-1491.61"/>
<polygon fill="black" stroke="black" stroke-width="1.5" points="126.71,-1491.26 123.15,-1481.28 119.71,-1491.3 126.71,-1491.26"/>
<text text-anchor="middle" x="150" y="-1559.78" font-family="Arial" font-size="11.00">publish VK</text>
</g>
<!-- AppStruct -->
<g id="node18" class="node">
<title>AppStruct</title>
<ellipse fill="#e6e6fa" stroke="black" cx="349" cy="-1454.11" rx="76.24" ry="66.44"/>
<text text-anchor="middle" x="349" y="-1479.11" font-family="Arial" font-size="10.00">App Structure:</text>
<text text-anchor="middle" x="349" y="-1468.11" font-family="Arial" font-size="10.00">{</text>
<text text-anchor="middle" x="349" y="-1457.11" font-family="Arial" font-size="10.00"> &#160;tag: char,</text>
<text text-anchor="middle" x="349" y="-1446.11" font-family="Arial" font-size="10.00"> &#160;identity: B32,</text>
<text text-anchor="middle" x="349" y="-1435.11" font-family="Arial" font-size="10.00"> &#160;vk: B32</text>
<text text-anchor="middle" x="349" y="-1424.11" font-family="Arial" font-size="10.00">}</text>
</g>
<!-- CreateApp&#45;&gt;AppStruct -->
<g id="edge17" class="edge">
<title>CreateApp&#45;&gt;AppStruct</title>
<path fill="none" stroke="#888888" stroke-width="1.5" stroke-dasharray="1,5" d="M157.68,-1604.31C191.01,-1578.32 242.89,-1537.86 284.22,-1505.63"/>
<polygon fill="#888888" stroke="#888888" stroke-width="1.5" points="286.61,-1508.21 292.34,-1499.3 282.3,-1502.69 286.61,-1508.21"/>
</g>
<!-- DefineData -->
<g id="node7" class="node">
<title>DefineData</title>
<polygon fill="#ffe4b5" stroke="black" points="196,-1300.65 50,-1300.65 50,-1233.65 196,-1233.65 196,-1300.65"/>
<text text-anchor="middle" x="123" y="-1277.05" font-family="Arial" font-size="12.00">Define Asset Data</text>
<text text-anchor="middle" x="123" y="-1264.05" font-family="Arial" font-size="12.00">(amount for tokens,</text>
<text text-anchor="middle" x="123" y="-1251.05" font-family="Arial" font-size="12.00">arbitrary for NFTs)</text>
</g>
<!-- RegisterApp&#45;&gt;DefineData -->
<g id="edge6" class="edge">
<title>RegisterApp&#45;&gt;DefineData</title>
<path fill="none" stroke="black" stroke-width="1.5" d="M123,-1427.01C123,-1396.82 123,-1346.71 123,-1310.84"/>
<polygon fill="black" stroke="black" stroke-width="1.5" points="126.5,-1310.66 123,-1300.66 119.5,-1310.66 126.5,-1310.66"/>
<text text-anchor="middle" x="177.5" y="-1342.85" font-family="Arial" font-size="11.00">define asset properties</text>
</g>
<!-- CreateCharm -->
<g id="node8" class="node">
<title>CreateCharm</title>
<polygon fill="#deb887" stroke="black" points="206.5,-1149.65 39.5,-1149.65 39.5,-1095.65 206.5,-1095.65 206.5,-1149.65"/>
<text text-anchor="middle" x="123" y="-1126.05" font-family="Arial" font-size="12.00">Create Charm</text>
<text text-anchor="middle" x="123" y="-1113.05" font-family="Arial" font-size="12.00">(App → Data mapping)</text>
</g>
<!-- DefineData&#45;&gt;CreateCharm -->
<g id="edge7" class="edge">
<title>DefineData&#45;&gt;CreateCharm</title>
<path fill="none" stroke="black" stroke-width="1.5" d="M123,-1233.45C123,-1211.61 123,-1182.84 123,-1160.23"/>
<polygon fill="black" stroke="black" stroke-width="1.5" points="126.5,-1160 123,-1150 119.5,-1160 126.5,-1160"/>
<text text-anchor="middle" x="162" y="-1188.85" font-family="Arial" font-size="11.00">bind app to data</text>
</g>
<!-- ComposeUTXO -->
<g id="node9" class="node">
<title>ComposeUTXO</title>
<polygon fill="#f4a460" stroke="black" points="181,-991.29 45,-991.29 45,-937.29 181,-937.29 181,-991.29"/>
<text text-anchor="middle" x="113" y="-967.69" font-family="Arial" font-size="12.00">Compose UTXO</text>
<text text-anchor="middle" x="113" y="-954.69" font-family="Arial" font-size="12.00">(string of charms)</text>
</g>
<!-- CreateCharm&#45;&gt;ComposeUTXO -->
<g id="edge8" class="edge">
<title>CreateCharm&#45;&gt;ComposeUTXO</title>
<path fill="none" stroke="black" stroke-width="1.5" d="M121.33,-1095.48C119.68,-1069.77 117.16,-1030.34 115.32,-1001.6"/>
<polygon fill="black" stroke="black" stroke-width="1.5" points="118.81,-1001.3 114.68,-991.55 111.82,-1001.75 118.81,-1001.3"/>
<text text-anchor="middle" x="157" y="-1050.85" font-family="Arial" font-size="11.00">multiple charms</text>
<text text-anchor="middle" x="157" y="-1038.85" font-family="Arial" font-size="11.00">per UTXO</text>
</g>
<!-- CharmStruct -->
<g id="node19" class="node">
<title>CharmStruct</title>
<ellipse fill="#e6e6fa" stroke="black" cx="342" cy="-964.29" rx="103.48" ry="35.21"/>
<text text-anchor="middle" x="342" y="-967.29" font-family="Arial" font-size="10.00">Charm Structure:</text>
<text text-anchor="middle" x="342" y="-956.29" font-family="Arial" font-size="10.00">BTreeMap&lt;App, Data&gt;</text>
</g>
<!-- CreateCharm&#45;&gt;CharmStruct -->
<g id="edge18" class="edge">
<title>CreateCharm&#45;&gt;CharmStruct</title>
<path fill="none" stroke="#888888" stroke-width="1.5" stroke-dasharray="1,5" d="M159.66,-1095.48C195.35,-1069.99 249.95,-1031.01 290.1,-1002.35"/>
<polygon fill="#888888" stroke="#888888" stroke-width="1.5" points="292.33,-1005.05 298.44,-996.39 288.26,-999.36 292.33,-1005.05"/>
</g>
<!-- CreateSpell -->
<g id="node10" class="node">
<title>CreateSpell</title>
<polygon fill="#dda0dd" stroke="black" points="200,-841.94 26,-841.94 26,-787.94 200,-787.94 200,-841.94"/>
<text text-anchor="middle" x="113" y="-818.34" font-family="Arial" font-size="12.00">Create Spell</text>
<text text-anchor="middle" x="113" y="-805.34" font-family="Arial" font-size="12.00">(version, apps, ins, outs)</text>
</g>
<!-- ComposeUTXO&#45;&gt;CreateSpell -->
<g id="edge9" class="edge">
<title>ComposeUTXO&#45;&gt;CreateSpell</title>
<path fill="none" stroke="black" stroke-width="1.5" d="M113,-937.29C113,-913.76 113,-878.86 113,-852.52"/>
<polygon fill="black" stroke="black" stroke-width="1.5" points="116.5,-852.18 113,-842.18 109.5,-852.18 116.5,-852.18"/>
<text text-anchor="middle" x="155.5" y="-884.14" font-family="Arial" font-size="11.00">define transaction</text>
</g>
<!-- NormalizeSpell -->
<g id="node11" class="node">
<title>NormalizeSpell</title>
<polygon fill="#da70d6" stroke="black" points="189,-664.47 27,-664.47 27,-610.47 189,-610.47 189,-664.47"/>
<text text-anchor="middle" x="108" y="-640.87" font-family="Arial" font-size="12.00">Normalize Spell</text>
<text text-anchor="middle" x="108" y="-627.87" font-family="Arial" font-size="12.00">(for efficient encoding)</text>
</g>
<!-- CreateSpell&#45;&gt;NormalizeSpell -->
<g id="edge10" class="edge">
<title>CreateSpell&#45;&gt;NormalizeSpell</title>
<path fill="none" stroke="black" stroke-width="1.5" d="M112.25,-787.67C111.4,-757.73 110,-708.61 109.04,-674.97"/>
<polygon fill="black" stroke="black" stroke-width="1.5" points="112.53,-674.53 108.75,-664.63 105.53,-674.73 112.53,-674.53"/>
<text text-anchor="middle" x="155.5" y="-743.14" font-family="Arial" font-size="11.00">optimize encoding</text>
</g>
<!-- SpellStruct -->
<g id="node20" class="node">
<title>SpellStruct</title>
<ellipse fill="#e6e6fa" stroke="black" cx="338" cy="-637.47" rx="91.43" ry="66.44"/>
<text text-anchor="middle" x="338" y="-662.47" font-family="Arial" font-size="10.00">Spell Structure:</text>
<text text-anchor="middle" x="338" y="-651.47" font-family="Arial" font-size="10.00">{</text>
<text text-anchor="middle" x="338" y="-640.47" font-family="Arial" font-size="10.00"> &#160;version: u32,</text>
<text text-anchor="middle" x="338" y="-629.47" font-family="Arial" font-size="10.00"> &#160;tx: Transaction,</text>
<text text-anchor="middle" x="338" y="-618.47" font-family="Arial" font-size="10.00"> &#160;app_public_inputs</text>
<text text-anchor="middle" x="338" y="-607.47" font-family="Arial" font-size="10.00">}</text>
</g>
<!-- CreateSpell&#45;&gt;SpellStruct -->
<g id="edge19" class="edge">
<title>CreateSpell&#45;&gt;SpellStruct</title>
<path fill="none" stroke="#888888" stroke-width="1.5" stroke-dasharray="1,5" d="M158.96,-787.85C176.35,-777.36 196.04,-764.73 213,-751.94 234.69,-735.59 257.05,-716.21 276.76,-698.13"/>
<polygon fill="#888888" stroke="#888888" stroke-width="1.5" points="279.21,-700.63 284.18,-691.28 274.46,-695.49 279.21,-700.63"/>
</g>
<!-- GenerateProof -->
<g id="node12" class="node">
<title>GenerateProof</title>
<polygon fill="#ba55d3" stroke="black" points="187.5,-487 28.5,-487 28.5,-433 187.5,-433 187.5,-487"/>
<text text-anchor="middle" x="108" y="-463.4" font-family="Arial" font-size="12.00">Generate zkVM Proof</text>
<text text-anchor="middle" x="108" y="-450.4" font-family="Arial" font-size="12.00">(SP1 → Groth16)</text>
</g>
<!-- NormalizeSpell&#45;&gt;GenerateProof -->
<g id="edge11" class="edge">
<title>NormalizeSpell&#45;&gt;GenerateProof</title>
<path fill="none" stroke="black" stroke-width="1.5" d="M108,-610.2C108,-580.26 108,-531.14 108,-497.5"/>
<polygon fill="black" stroke="black" stroke-width="1.5" points="111.5,-497.16 108,-487.16 104.5,-497.16 111.5,-497.16"/>
<text text-anchor="middle" x="151" y="-526.2" font-family="Arial" font-size="11.00">prove correctness</text>
</g>
<!-- EmbedSpell -->
<g id="node13" class="node">
<title>EmbedSpell</title>
<polygon fill="#ffe4b5" stroke="black" points="184,-346 32,-346 32,-292 184,-292 184,-346"/>
<text text-anchor="middle" x="108" y="-322.4" font-family="Arial" font-size="12.00">Embed in Bitcoin Tx</text>
<text text-anchor="middle" x="108" y="-309.4" font-family="Arial" font-size="12.00">(Taproot witness)</text>
</g>
<!-- GenerateProof&#45;&gt;EmbedSpell -->
<g id="edge12" class="edge">
<title>GenerateProof&#45;&gt;EmbedSpell</title>
<path fill="none" stroke="black" stroke-width="1.5" d="M108,-432.86C108,-411.21 108,-380.22 108,-356.19"/>
<polygon fill="black" stroke="black" stroke-width="1.5" points="111.5,-356.03 108,-346.03 104.5,-356.03 111.5,-356.03"/>
<text text-anchor="middle" x="139" y="-388.2" font-family="Arial" font-size="11.00">include proof</text>
</g>
<!-- BroadcastTx -->
<g id="node14" class="node">
<title>BroadcastTx</title>
<polygon fill="#ffa500" stroke="black" points="190,-208 26,-208 26,-154 190,-154 190,-208"/>
<text text-anchor="middle" x="108" y="-184.4" font-family="Arial" font-size="12.00">Broadcast Transaction</text>
<text text-anchor="middle" x="108" y="-171.4" font-family="Arial" font-size="12.00">(to Bitcoin network)</text>
</g>
<!-- EmbedSpell&#45;&gt;BroadcastTx -->
<g id="edge13" class="edge">
<title>EmbedSpell&#45;&gt;BroadcastTx</title>
<path fill="none" stroke="black" stroke-width="1.5" d="M108,-291.78C108,-270.89 108,-241.43 108,-218.28"/>
<polygon fill="black" stroke="black" stroke-width="1.5" points="111.5,-218.14 108,-208.14 104.5,-218.14 111.5,-218.14"/>
<text text-anchor="middle" x="150.5" y="-247.2" font-family="Arial" font-size="11.00">submit to network</text>
</g>
<!-- ConfirmUTXO -->
<g id="node15" class="node">
<title>ConfirmUTXO</title>
<polygon fill="#ff7f50" stroke="black" points="185,-70 31,-70 31,-16 185,-16 185,-70"/>
<text text-anchor="middle" x="108" y="-46.4" font-family="Arial" font-size="12.00">UTXO with Charms</text>
<text text-anchor="middle" x="108" y="-33.4" font-family="Arial" font-size="12.00">(confirmed on&#45;chain)</text>
</g>
<!-- BroadcastTx&#45;&gt;ConfirmUTXO -->
<g id="edge14" class="edge">
<title>BroadcastTx&#45;&gt;ConfirmUTXO</title>
<path fill="none" stroke="black" stroke-width="1.5" d="M108,-153.78C108,-132.89 108,-103.43 108,-80.28"/>
<polygon fill="black" stroke="black" stroke-width="1.5" points="111.5,-80.14 108,-70.14 104.5,-80.14 111.5,-80.14"/>
<text text-anchor="middle" x="134" y="-109.2" font-family="Arial" font-size="11.00">mine block</text>
</g>
</g>
</svg>
