<?xml version="1.0" encoding="UTF-8" standalone="no"?>
<!DOCTYPE svg PUBLIC "-//W3C//DTD SVG 1.1//EN"
 "http://www.w3.org/Graphics/SVG/1.1/DTD/svg11.dtd">
<!-- Generated by graphviz version 2.43.0 (0)
 -->
<!-- Title: CrossChainTransfer Pages: 1 -->
<svg width="1817pt" height="925pt"
 viewBox="0.00 0.00 1817.00 925.00" xmlns="http://www.w3.org/2000/svg" xmlns:xlink="http://www.w3.org/1999/xlink">
<g id="graph0" class="graph" transform="scale(1 1) rotate(0) translate(4 921)">
<title>CrossChainTransfer</title>
<polygon fill="white" stroke="transparent" points="-4,4 -4,-921 1813,-921 1813,4 -4,4"/>
<text text-anchor="middle" x="904.5" y="-881.2" font-family="Arial Bold" font-size="16.00">Charms Cross&#45;Chain Transfer (C3T) Process</text>
<text text-anchor="middle" x="904.5" y="-863.2" font-family="Arial Bold" font-size="16.00">Moving Charms Between Blockchain Networks</text>
<g id="clust1" class="cluster">
<title>cluster_main_flow</title>
<path fill="#f0fff0" stroke="#2e8b57" d="M20,-467C20,-467 976,-467 976,-467 982,-467 988,-473 988,-479 988,-479 988,-596 988,-596 988,-602 982,-608 976,-608 976,-608 20,-608 20,-608 14,-608 8,-602 8,-596 8,-596 8,-479 8,-479 8,-473 14,-467 20,-467"/>
<text text-anchor="middle" x="498" y="-592.8" font-family="Times,serif" font-size="14.00">C3T Process Flow</text>
</g>
<g id="clust2" class="cluster">
<title>cluster_source_chain</title>
<path fill="#fff8dc" stroke="#ff8c00" d="M811.5,-213C811.5,-213 1349.5,-213 1349.5,-213 1355.5,-213 1361.5,-219 1361.5,-225 1361.5,-225 1361.5,-420 1361.5,-420 1361.5,-426 1355.5,-432 1349.5,-432 1349.5,-432 811.5,-432 811.5,-432 805.5,-432 799.5,-426 799.5,-420 799.5,-420 799.5,-225 799.5,-225 799.5,-219 805.5,-213 811.5,-213"/>
<text text-anchor="middle" x="1080.5" y="-416.8" font-family="Times,serif" font-size="14.00">Source Chain Implementation (e.g., Bitcoin)</text>
</g>
<g id="clust3" class="cluster">
<title>cluster_target_chain</title>
<path fill="#f0f8ff" stroke="#4169e1" d="M1191,-627C1191,-627 1725.5,-627 1725.5,-627 1731.5,-627 1737.5,-633 1737.5,-639 1737.5,-639 1737.5,-834 1737.5,-834 1737.5,-840 1731.5,-846 1725.5,-846 1725.5,-846 1191,-846 1191,-846 1185,-846 1179,-840 1179,-834 1179,-834 1179,-639 1179,-639 1179,-633 1185,-627 1191,-627"/>
<text text-anchor="middle" x="1458.25" y="-830.8" font-family="Times,serif" font-size="14.00">Target Chain Implementation (e.g., Cardano)</text>
</g>
<g id="clust4" class="cluster">
<title>cluster_data_structures</title>
<path fill="#f8f8ff" stroke="#8b008b" d="M1578.5,-330C1578.5,-330 1766.5,-330 1766.5,-330 1772.5,-330 1778.5,-336 1778.5,-342 1778.5,-342 1778.5,-607 1778.5,-607 1778.5,-613 1772.5,-619 1766.5,-619 1766.5,-619 1578.5,-619 1578.5,-619 1572.5,-619 1566.5,-613 1566.5,-607 1566.5,-607 1566.5,-342 1566.5,-342 1566.5,-336 1572.5,-330 1578.5,-330"/>
<text text-anchor="middle" x="1672.5" y="-603.8" font-family="Times,serif" font-size="14.00">Key Data Structures</text>
</g>
<g id="clust5" class="cluster">
<title>cluster_security</title>
<path fill="#fff0f0" stroke="#dc143c" d="M1556,-8C1556,-8 1789,-8 1789,-8 1795,-8 1801,-14 1801,-20 1801,-20 1801,-285 1801,-285 1801,-291 1795,-297 1789,-297 1789,-297 1556,-297 1556,-297 1550,-297 1544,-291 1544,-285 1544,-285 1544,-20 1544,-20 1544,-14 1550,-8 1556,-8"/>
<text text-anchor="middle" x="1672.5" y="-281.8" font-family="Times,serif" font-size="14.00">Security Properties</text>
</g>
<g id="clust6" class="cluster">
<title>cluster_example</title>
<path fill="#f5f5dc" stroke="#8b4513" d="M29,-33C29,-33 966.5,-33 966.5,-33 972.5,-33 978.5,-39 978.5,-45 978.5,-45 978.5,-144 978.5,-144 978.5,-150 972.5,-156 966.5,-156 966.5,-156 29,-156 29,-156 23,-156 17,-150 17,-144 17,-144 17,-45 17,-45 17,-39 23,-33 29,-33"/>
<text text-anchor="middle" x="497.75" y="-140.8" font-family="Times,serif" font-size="14.00">Concrete Example: Bitcoin → Cardano</text>
</g>
<!-- Step0 -->
<g id="node1" class="node">
<title>Step0</title>
<polygon fill="#98fb98" stroke="black" points="208,-576.5 16,-576.5 16,-475.5 208,-475.5 208,-576.5"/>
<text text-anchor="middle" x="112" y="-553.7" font-family="Arial" font-size="11.00">Step 0:</text>
<text text-anchor="middle" x="112" y="-541.7" font-family="Arial" font-size="11.00">Create Placeholder</text>
<text text-anchor="middle" x="112" y="-516.7" font-family="Arial" font-size="11.00">• Create UTXO on target chain</text>
<text text-anchor="middle" x="112" y="-504.7" font-family="Arial" font-size="11.00">• No spell required</text>
<text text-anchor="middle" x="112" y="-492.7" font-family="Arial" font-size="11.00">• Note UTXO ID</text>
</g>
<!-- Step1 -->
<g id="node2" class="node">
<title>Step1</title>
<polygon fill="#90ee90" stroke="black" points="586,-576.5 386,-576.5 386,-475.5 586,-475.5 586,-576.5"/>
<text text-anchor="middle" x="486" y="-553.7" font-family="Arial" font-size="11.00">Step 1:</text>
<text text-anchor="middle" x="486" y="-541.7" font-family="Arial" font-size="11.00">Beam Charms</text>
<text text-anchor="middle" x="486" y="-516.7" font-family="Arial" font-size="11.00">• Create spell with outer_utxo_id</text>
<text text-anchor="middle" x="486" y="-504.7" font-family="Arial" font-size="11.00">• Point to target chain UTXO</text>
<text text-anchor="middle" x="486" y="-492.7" font-family="Arial" font-size="11.00">• Generate proof of beaming</text>
</g>
<!-- Step0&#45;&gt;Step1 -->
<g id="edge1" class="edge">
<title>Step0&#45;&gt;Step1</title>
<path fill="none" stroke="#2e8b57" stroke-width="2" d="M208.31,-526C208.31,-526 375.77,-526 375.77,-526"/>
<polygon fill="#2e8b57" stroke="#2e8b57" stroke-width="2" points="375.77,-529.5 385.77,-526 375.77,-522.5 375.77,-529.5"/>
<text text-anchor="middle" x="294" y="-550.4" font-family="Arial" font-size="12.00">then</text>
</g>
<!-- PlaceholderUTXO -->
<g id="node7" class="node">
<title>PlaceholderUTXO</title>
<polygon fill="#87ceeb" stroke="black" points="1347.5,-815 1201.5,-815 1201.5,-761 1347.5,-761 1347.5,-815"/>
<text text-anchor="middle" x="1274.5" y="-791.4" font-family="Arial" font-size="12.00">Placeholder UTXO</text>
<text text-anchor="middle" x="1274.5" y="-778.4" font-family="Arial" font-size="12.00">(created first)</text>
</g>
<!-- Step0&#45;&gt;PlaceholderUTXO -->
<g id="edge3" class="edge">
<title>Step0&#45;&gt;PlaceholderUTXO</title>
<path fill="none" stroke="#4169e1" stroke-width="1.5" stroke-dasharray="5,2" d="M112,-576.52C112,-652.65 112,-788 112,-788 112,-788 1191.34,-788 1191.34,-788"/>
<polygon fill="#4169e1" stroke="#4169e1" stroke-width="1.5" points="1191.34,-791.5 1201.34,-788 1191.34,-784.5 1191.34,-791.5"/>
<text text-anchor="middle" x="688.5" y="-749.2" font-family="Arial" font-size="11.00">creates</text>
</g>
<!-- Step2 -->
<g id="node3" class="node">
<title>Step2</title>
<polygon fill="#87ceeb" stroke="black" points="980,-576.5 785,-576.5 785,-475.5 980,-475.5 980,-576.5"/>
<text text-anchor="middle" x="882.5" y="-553.7" font-family="Arial" font-size="11.00">Step 2:</text>
<text text-anchor="middle" x="882.5" y="-541.7" font-family="Arial" font-size="11.00">Claim on Target</text>
<text text-anchor="middle" x="882.5" y="-516.7" font-family="Arial" font-size="11.00">• Create spell on target chain</text>
<text text-anchor="middle" x="882.5" y="-504.7" font-family="Arial" font-size="11.00">• Prove source chain beaming</text>
<text text-anchor="middle" x="882.5" y="-492.7" font-family="Arial" font-size="11.00">• Include block hash for security</text>
</g>
<!-- Step1&#45;&gt;Step2 -->
<g id="edge2" class="edge">
<title>Step1&#45;&gt;Step2</title>
<path fill="none" stroke="#2e8b57" stroke-width="2" d="M586.05,-526C586.05,-526 774.88,-526 774.88,-526"/>
<polygon fill="#2e8b57" stroke="#2e8b57" stroke-width="2" points="774.88,-529.5 784.88,-526 774.88,-522.5 774.88,-529.5"/>
<text text-anchor="middle" x="688.5" y="-550.4" font-family="Arial" font-size="12.00">then</text>
</g>
<!-- SourceUTXO -->
<g id="node4" class="node">
<title>SourceUTXO</title>
<polygon fill="#ffe4b5" stroke="black" points="942.5,-275 822.5,-275 822.5,-221 942.5,-221 942.5,-275"/>
<text text-anchor="middle" x="882.5" y="-251.4" font-family="Arial" font-size="12.00">Source UTXO</text>
<text text-anchor="middle" x="882.5" y="-238.4" font-family="Arial" font-size="12.00">with Charms</text>
</g>
<!-- Step1&#45;&gt;SourceUTXO -->
<g id="edge4" class="edge">
<title>Step1&#45;&gt;SourceUTXO</title>
<path fill="none" stroke="#ff8c00" stroke-width="1.5" stroke-dasharray="5,2" d="M486,-475.4C486,-397.48 486,-257 486,-257 486,-257 812.28,-257 812.28,-257"/>
<polygon fill="#ff8c00" stroke="#ff8c00" stroke-width="1.5" points="812.28,-260.5 822.28,-257 812.28,-253.5 812.28,-260.5"/>
<text text-anchor="middle" x="688.5" y="-318.2" font-family="Arial" font-size="11.00">starts with</text>
</g>
<!-- BeamSpell -->
<g id="node5" class="node">
<title>BeamSpell</title>
<polygon fill="#deb887" stroke="black" points="957.5,-401 807.5,-401 807.5,-347 957.5,-347 957.5,-401"/>
<text text-anchor="middle" x="882.5" y="-377.4" font-family="Arial" font-size="12.00">Beaming Spell</text>
<text text-anchor="middle" x="882.5" y="-364.4" font-family="Arial" font-size="12.00">(with outer_utxo_id)</text>
</g>
<!-- Step1&#45;&gt;BeamSpell -->
<g id="edge5" class="edge">
<title>Step1&#45;&gt;BeamSpell</title>
<path fill="none" stroke="#ff8c00" stroke-width="1.5" d="M536,-475.18C536,-434.08 536,-383 536,-383 536,-383 797.31,-383 797.31,-383"/>
<polygon fill="#ff8c00" stroke="#ff8c00" stroke-width="1.5" points="797.31,-386.5 807.31,-383 797.31,-379.5 797.31,-386.5"/>
<text text-anchor="middle" x="688.5" y="-419.2" font-family="Arial" font-size="11.00">creates</text>
</g>
<!-- ReceiveSpell -->
<g id="node8" class="node">
<title>ReceiveSpell</title>
<polygon fill="#87cefa" stroke="black" points="1362,-689 1187,-689 1187,-635 1362,-635 1362,-689"/>
<text text-anchor="middle" x="1274.5" y="-665.4" font-family="Arial" font-size="12.00">Receiving Spell</text>
<text text-anchor="middle" x="1274.5" y="-652.4" font-family="Arial" font-size="12.00">(claims beamed charms)</text>
</g>
<!-- Step2&#45;&gt;ReceiveSpell -->
<g id="edge7" class="edge">
<title>Step2&#45;&gt;ReceiveSpell</title>
<path fill="none" stroke="#4169e1" stroke-width="1.5" stroke-dasharray="5,2" d="M980,-537.5C1070.72,-537.5 1192,-537.5 1192,-537.5 1192,-537.5 1192,-624.99 1192,-624.99"/>
<polygon fill="#4169e1" stroke="#4169e1" stroke-width="1.5" points="1188.5,-624.99 1192,-634.99 1195.5,-624.99 1188.5,-624.99"/>
<text text-anchor="middle" x="1083.5" y="-654.2" font-family="Arial" font-size="11.00">creates</text>
</g>
<!-- DoubleSpendPrevention -->
<g id="node13" class="node">
<title>DoubleSpendPrevention</title>
<polygon fill="#ffa07a" stroke="black" points="1793,-265.5 1552,-265.5 1552,-176.5 1793,-176.5 1793,-265.5"/>
<text text-anchor="middle" x="1672.5" y="-242.7" font-family="Arial" font-size="11.00">Double Spend Prevention</text>
<text text-anchor="middle" x="1672.5" y="-217.7" font-family="Arial" font-size="11.00">• Source chain prevents double&#45;spending</text>
<text text-anchor="middle" x="1672.5" y="-205.7" font-family="Arial" font-size="11.00">• Target chain checks beam proof</text>
<text text-anchor="middle" x="1672.5" y="-193.7" font-family="Arial" font-size="11.00">• Only one claim per beam</text>
</g>
<!-- Step2&#45;&gt;DoubleSpendPrevention -->
<g id="edge12" class="edge">
<title>Step2&#45;&gt;DoubleSpendPrevention</title>
<path fill="none" stroke="#dc143c" stroke-width="1.5" stroke-dasharray="1,5" d="M980.14,-487C1168.58,-487 1564,-487 1564,-487 1564,-487 1564,-275.52 1564,-275.52"/>
<polygon fill="#dc143c" stroke="#dc143c" stroke-width="1.5" points="1567.5,-275.52 1564,-265.52 1560.5,-275.52 1567.5,-275.52"/>
<text text-anchor="middle" x="1274.5" y="-529.2" font-family="Arial" font-size="11.00">enforces</text>
</g>
<!-- BTCExample -->
<g id="node14" class="node">
<title>BTCExample</title>
<polygon fill="#deb887" stroke="black" points="199,-125 25,-125 25,-61 199,-61 199,-125"/>
<text text-anchor="middle" x="112" y="-102.2" font-family="Arial" font-size="11.00">Bitcoin UTXO:</text>
<text text-anchor="middle" x="112" y="-90.2" font-family="Arial" font-size="11.00">• AliceCoin: 100 units</text>
<text text-anchor="middle" x="112" y="-78.2" font-family="Arial" font-size="11.00">• AliceNFT: {id: 42, level: 5}</text>
</g>
<!-- SourceUTXO&#45;&gt;BTCExample -->
<g id="edge15" class="edge">
<title>SourceUTXO&#45;&gt;BTCExample</title>
<path fill="none" stroke="#8b4513" stroke-width="1.5" stroke-dasharray="1,5" d="M822.36,-239C641.03,-239 112,-239 112,-239 112,-239 112,-135.04 112,-135.04"/>
<polygon fill="#8b4513" stroke="#8b4513" stroke-width="1.5" points="115.5,-135.04 112,-125.04 108.5,-135.04 115.5,-135.04"/>
</g>
<!-- BeamTx -->
<g id="node6" class="node">
<title>BeamTx</title>
<polygon fill="#cd853f" stroke="black" points="1353.5,-382 1195.5,-382 1195.5,-328 1353.5,-328 1353.5,-382"/>
<text text-anchor="middle" x="1274.5" y="-358.4" font-family="Arial" font-size="12.00">Beaming Transaction</text>
<text text-anchor="middle" x="1274.5" y="-345.4" font-family="Arial" font-size="12.00">(on source chain)</text>
</g>
<!-- BeamSpell&#45;&gt;BeamTx -->
<g id="edge6" class="edge">
<title>BeamSpell&#45;&gt;BeamTx</title>
<path fill="none" stroke="#ff8c00" stroke-width="1.5" d="M957.62,-364.5C957.62,-364.5 1185.26,-364.5 1185.26,-364.5"/>
<polygon fill="#ff8c00" stroke="#ff8c00" stroke-width="1.5" points="1185.26,-368 1195.26,-364.5 1185.26,-361 1185.26,-368"/>
<text text-anchor="middle" x="1083.5" y="-369.2" font-family="Arial" font-size="11.00">embedded in</text>
</g>
<!-- OuterUTXOID -->
<g id="node10" class="node">
<title>OuterUTXOID</title>
<polygon fill="#dda0dd" stroke="black" points="1770.5,-426.5 1574.5,-426.5 1574.5,-337.5 1770.5,-337.5 1770.5,-426.5"/>
<text text-anchor="middle" x="1672.5" y="-403.7" font-family="Arial" font-size="11.00">outer_utxo_id Field</text>
<text text-anchor="middle" x="1672.5" y="-378.7" font-family="Arial" font-size="11.00">• Optional field in charms output</text>
<text text-anchor="middle" x="1672.5" y="-366.7" font-family="Arial" font-size="11.00">• Points to target chain UTXO</text>
<text text-anchor="middle" x="1672.5" y="-354.7" font-family="Arial" font-size="11.00">• Enables cross&#45;chain linking</text>
</g>
<!-- BeamSpell&#45;&gt;OuterUTXOID -->
<g id="edge9" class="edge">
<title>BeamSpell&#45;&gt;OuterUTXOID</title>
<path fill="none" stroke="#8b008b" stroke-width="1.5" stroke-dasharray="1,5" d="M957.53,-391.5C957.53,-391.5 1564.47,-391.5 1564.47,-391.5"/>
<polygon fill="#8b008b" stroke="#8b008b" stroke-width="1.5" points="1564.47,-395 1574.47,-391.5 1564.47,-388 1564.47,-395"/>
<text text-anchor="middle" x="1274.5" y="-247.2" font-family="Arial" font-size="11.00">includes</text>
</g>
<!-- BeamExample -->
<g id="node15" class="node">
<title>BeamExample</title>
<polygon fill="#cd853f" stroke="black" points="592,-125 380,-125 380,-61 592,-61 592,-125"/>
<text text-anchor="middle" x="486" y="-102.2" font-family="Arial" font-size="11.00">Beam Operation:</text>
<text text-anchor="middle" x="486" y="-90.2" font-family="Arial" font-size="11.00">• outer_utxo_id: cardano_utxo_123</text>
<text text-anchor="middle" x="486" y="-78.2" font-family="Arial" font-size="11.00">• Block hash: btc_block_456</text>
</g>
<!-- BeamSpell&#45;&gt;BeamExample -->
<g id="edge16" class="edge">
<title>BeamSpell&#45;&gt;BeamExample</title>
<path fill="none" stroke="#8b4513" stroke-width="1.5" stroke-dasharray="1,5" d="M807.26,-365C680.01,-365 436,-365 436,-365 436,-365 436,-135 436,-135"/>
<polygon fill="#8b4513" stroke="#8b4513" stroke-width="1.5" points="439.5,-135 436,-125 432.5,-135 439.5,-135"/>
</g>
<!-- MainChainCheck -->
<g id="node12" class="node">
<title>MainChainCheck</title>
<polygon fill="#ffb6c1" stroke="black" points="1773.5,-104.5 1571.5,-104.5 1571.5,-15.5 1773.5,-15.5 1773.5,-104.5"/>
<text text-anchor="middle" x="1672.5" y="-81.7" font-family="Arial" font-size="11.00">Main Chain Verification</text>
<text text-anchor="middle" x="1672.5" y="-56.7" font-family="Arial" font-size="11.00">• Check block hash in main chain</text>
<text text-anchor="middle" x="1672.5" y="-44.7" font-family="Arial" font-size="11.00">• Reject if block not found</text>
<text text-anchor="middle" x="1672.5" y="-32.7" font-family="Arial" font-size="11.00">• Prevents invalid transfers</text>
</g>
<!-- BeamTx&#45;&gt;MainChainCheck -->
<g id="edge11" class="edge">
<title>BeamTx&#45;&gt;MainChainCheck</title>
<path fill="none" stroke="#dc143c" stroke-width="1.5" stroke-dasharray="1,5" d="M1275,-327.81C1275,-257.8 1275,-76.75 1275,-76.75 1275,-76.75 1561.42,-76.75 1561.42,-76.75"/>
<polygon fill="#dc143c" stroke="#dc143c" stroke-width="1.5" points="1561.42,-80.25 1571.42,-76.75 1561.42,-73.25 1561.42,-80.25"/>
<text text-anchor="middle" x="1457" y="-190.2" font-family="Arial" font-size="11.00">subject to</text>
</g>
<!-- TargetUTXO -->
<g id="node9" class="node">
<title>TargetUTXO</title>
<polygon fill="#4682b4" stroke="black" points="1729.5,-756 1615.5,-756 1615.5,-702 1729.5,-702 1729.5,-756"/>
<text text-anchor="middle" x="1672.5" y="-732.4" font-family="Arial" font-size="12.00">Target UTXO</text>
<text text-anchor="middle" x="1672.5" y="-719.4" font-family="Arial" font-size="12.00">with Charms</text>
</g>
<!-- ReceiveSpell&#45;&gt;TargetUTXO -->
<g id="edge8" class="edge">
<title>ReceiveSpell&#45;&gt;TargetUTXO</title>
<path fill="none" stroke="#4169e1" stroke-width="1.5" d="M1355,-689.01C1355,-710.85 1355,-738 1355,-738 1355,-738 1605.37,-738 1605.37,-738"/>
<polygon fill="#4169e1" stroke="#4169e1" stroke-width="1.5" points="1605.37,-741.5 1615.37,-738 1605.37,-734.5 1605.37,-741.5"/>
<text text-anchor="middle" x="1457" y="-732.2" font-family="Arial" font-size="11.00">results in</text>
</g>
<!-- BlockHashProof -->
<g id="node11" class="node">
<title>BlockHashProof</title>
<polygon fill="#da70d6" stroke="black" points="1767.5,-587.5 1577.5,-587.5 1577.5,-498.5 1767.5,-498.5 1767.5,-587.5"/>
<text text-anchor="middle" x="1672.5" y="-564.7" font-family="Arial" font-size="11.00">Block Hash Inclusion</text>
<text text-anchor="middle" x="1672.5" y="-539.7" font-family="Arial" font-size="11.00">• Prevents alternative history</text>
<text text-anchor="middle" x="1672.5" y="-527.7" font-family="Arial" font-size="11.00">• Ensures main chain inclusion</text>
<text text-anchor="middle" x="1672.5" y="-515.7" font-family="Arial" font-size="11.00">• Guards against reorgs</text>
</g>
<!-- ReceiveSpell&#45;&gt;BlockHashProof -->
<g id="edge10" class="edge">
<title>ReceiveSpell&#45;&gt;BlockHashProof</title>
<path fill="none" stroke="#8b008b" stroke-width="1.5" stroke-dasharray="1,5" d="M1358,-634.92C1358,-611.71 1358,-582 1358,-582 1358,-582 1567.29,-582 1567.29,-582"/>
<polygon fill="#8b008b" stroke="#8b008b" stroke-width="1.5" points="1567.29,-585.5 1577.29,-582 1567.29,-578.5 1567.29,-585.5"/>
<text text-anchor="middle" x="1457" y="-643.2" font-family="Arial" font-size="11.00">includes</text>
</g>
<!-- CardanoExample -->
<g id="node16" class="node">
<title>CardanoExample</title>
<polygon fill="#bc9a6a" stroke="black" points="970.5,-125 794.5,-125 794.5,-49 970.5,-49 970.5,-125"/>
<text text-anchor="middle" x="882.5" y="-102.2" font-family="Arial" font-size="11.00">Cardano UTXO:</text>
<text text-anchor="middle" x="882.5" y="-90.2" font-family="Arial" font-size="11.00">• AliceCoin: 100 units</text>
<text text-anchor="middle" x="882.5" y="-78.2" font-family="Arial" font-size="11.00">• AliceNFT: {id: 42, level: 5}</text>
<text text-anchor="middle" x="882.5" y="-66.2" font-family="Arial" font-size="11.00">• Same charms, new chain!</text>
</g>
<!-- TargetUTXO&#45;&gt;CardanoExample -->
<g id="edge17" class="edge">
<title>TargetUTXO&#45;&gt;CardanoExample</title>
<path fill="none" stroke="#8b4513" stroke-width="1.5" stroke-dasharray="1,5" d="M1615.32,-720C1551.47,-720 1457,-720 1457,-720 1457,-720 1457,-114.75 1457,-114.75 1457,-114.75 980.69,-114.75 980.69,-114.75"/>
<polygon fill="#8b4513" stroke="#8b4513" stroke-width="1.5" points="980.69,-111.25 970.69,-114.75 980.69,-118.25 980.69,-111.25"/>
</g>
<!-- BTCExample&#45;&gt;BeamExample -->
<g id="edge13" class="edge">
<title>BTCExample&#45;&gt;BeamExample</title>
<path fill="none" stroke="#8b4513" stroke-width="1.5" d="M199.21,-93C199.21,-93 369.96,-93 369.96,-93"/>
<polygon fill="#8b4513" stroke="#8b4513" stroke-width="1.5" points="369.96,-96.5 379.96,-93 369.96,-89.5 369.96,-96.5"/>
<text text-anchor="middle" x="294" y="-116.2" font-family="Arial" font-size="11.00">beam</text>
</g>
<!-- BeamExample&#45;&gt;CardanoExample -->
<g id="edge14" class="edge">
<title>BeamExample&#45;&gt;CardanoExample</title>
<path fill="none" stroke="#8b4513" stroke-width="1.5" d="M592.25,-93C592.25,-93 784.38,-93 784.38,-93"/>
<polygon fill="#8b4513" stroke="#8b4513" stroke-width="1.5" points="784.38,-96.5 794.38,-93 784.38,-89.5 784.38,-96.5"/>
<text text-anchor="middle" x="688.5" y="-116.2" font-family="Arial" font-size="11.00">claim</text>
</g>
</g>
</svg>
